<svg xmlns="http://www.w3.org/2000/svg" viewBox="0 -0.5 128 128" shape-rendering="crispEdges">
<metadata>Made with Pixels to Svg https://codepen.io/shshaw/pen/XbxvNj</metadata>
<path stroke="#000000" d="M56 17h43M49 18h8M98 18h14M42 19h8M111 19h4M37 20h6M106 20h4M114 20h4M35 21h3M102 21h1M104 21h1M106 21h1M108 21h5M117 21h3M34 22h2M39 22h4M103 22h1M105 22h1M107 22h1M109 22h1M111 22h5M119 22h3M33 23h2M37 23h3M106 23h1M108 23h1M110 23h1M112 23h1M114 23h4M121 23h2M33 24h1M36 24h2M43 24h1M107 24h1M109 24h1M111 24h1M113 24h1M115 24h1M117 24h3M122 24h2M33 25h1M35 25h2M42 25h1M44 25h1M46 25h1M106 25h1M108 25h1M110 25h1M112 25h1M114 25h1M116 25h1M118 25h2M123 25h1M33 26h1M35 26h1M41 26h1M43 26h1M45 26h1M105 26h1M107 26h1M109 26h1M111 26h1M113 26h1M115 26h1M117 26h1M119 26h1M123 26h1M33 27h1M35 27h1M40 27h1M42 27h1M44 27h1M46 27h1M106 27h1M108 27h1M110 27h1M112 27h1M114 27h1M116 27h4M123 27h1M33 28h1M35 28h1M39 28h3M43 28h1M45 28h1M47 28h1M105 28h1M107 28h1M109 28h1M111 28h1M113 28h5M123 28h1M31 29h3M35 29h1M39 29h2M42 29h1M44 29h1M46 29h1M48 29h1M104 29h1M106 29h1M108 29h1M110 29h5M123 29h1M28 30h4M35 30h1M39 30h3M43 30h1M45 30h1M47 30h1M60 30h39M105 30h6M123 30h1M25 31h4M33 31h3M39 31h2M42 31h1M44 31h1M46 31h1M48 31h1M55 31h6M96 31h10M123 31h1M21 32h5M31 32h3M39 32h3M43 32h1M45 32h1M47 32h1M52 32h4M89 32h8M123 32h1M16 33h6M28 33h4M39 33h2M42 33h1M44 33h1M46 33h1M48 33h5M79 33h11M123 33h1M11 34h6M25 34h4M39 34h3M43 34h1M45 34h1M47 34h3M76 34h4M123 34h1M9 35h3M20 35h6M39 35h2M42 35h1M44 35h4M74 35h3M81 35h2M123 35h1M8 36h2M15 36h6M39 36h6M73 36h2M76 36h1M80 36h2M123 36h1M7 37h2M11 37h5M39 37h4M73 37h1M76 37h2M81 37h4M123 37h1M7 38h1M10 38h3M14 38h1M16 38h1M39 38h3M73 38h1M77 38h2M84 38h6M122 38h2M7 39h1M9 39h3M13 39h1M15 39h1M39 39h2M73 39h1M78 39h5M89 39h7M122 39h1M7 40h1M9 40h2M12 40h1M14 40h1M39 40h2M73 40h1M82 40h5M95 40h7M122 40h1M7 41h1M9 41h1M11 41h1M13 41h1M15 41h1M39 41h2M73 41h1M86 41h6M101 41h3M121 41h2M7 42h1M9 42h2M12 42h1M14 42h1M39 42h1M73 42h1M91 42h6M103 42h2M120 42h2M7 43h1M9 43h1M11 43h1M13 43h1M15 43h1M39 43h1M73 43h1M92 43h1M94 43h1M96 43h5M104 43h1M118 43h3M7 44h1M9 44h2M12 44h1M14 44h1M16 44h1M36 44h4M73 44h1M91 44h1M93 44h1M95 44h1M97 44h1M99 44h3M104 44h1M115 44h4M7 45h1M10 45h2M13 45h1M15 45h1M31 45h6M73 45h1M90 45h1M92 45h1M94 45h1M96 45h1M98 45h1M100 45h2M104 45h12M6 46h2M11 46h2M14 46h1M16 46h1M25 46h7M73 46h1M89 46h1M91 46h1M93 46h1M95 46h1M97 46h1M99 46h1M101 46h1M104 46h1M6 47h1M12 47h5M21 47h6M73 47h1M88 47h1M90 47h1M92 47h1M94 47h1M96 47h1M98 47h1M100 47h2M104 47h1M6 48h1M16 48h6M26 48h5M35 48h8M73 48h1M87 48h1M89 48h1M91 48h1M93 48h1M95 48h1M97 48h1M99 48h2M104 48h1M6 49h1M17 49h1M19 49h1M30 49h6M42 49h3M73 49h1M86 49h1M88 49h1M90 49h1M92 49h1M94 49h1M96 49h4M104 49h1M6 50h1M16 50h1M18 50h2M32 50h2M44 50h2M73 50h1M87 50h1M89 50h1M91 50h1M93 50h5M104 50h1M6 51h1M17 51h1M19 51h1M31 51h2M37 51h4M45 51h2M73 51h2M86 51h1M88 51h1M90 51h1M92 51h3M104 51h1M6 52h1M16 52h1M18 52h2M30 52h2M35 52h3M40 52h4M45 52h17M74 52h4M87 52h5M104 52h1M6 53h1M17 53h1M19 53h2M29 53h2M34 53h2M43 53h3M61 53h28M104 53h1M6 54h1M16 54h1M18 54h1M20 54h1M29 54h1M33 54h2M43 54h1M47 54h1M49 54h1M104 54h1M6 55h1M17 55h1M19 55h2M28 55h2M31 55h4M43 55h1M48 55h1M52 55h2M59 55h2M104 55h1M6 56h1M16 56h1M18 56h1M20 56h1M28 56h4M34 56h1M43 56h1M47 56h1M49 56h1M52 56h2M59 56h2M104 56h1M6 57h1M13 57h1M15 57h1M17 57h1M19 57h3M24 57h5M34 57h1M43 57h1M48 57h1M104 57h1M6 58h2M12 58h1M14 58h1M16 58h1M18 58h7M34 58h2M43 58h1M47 58h1M49 58h1M104 58h1M7 59h1M11 59h1M13 59h1M15 59h1M17 59h5M35 59h1M43 59h1M48 59h1M104 59h1M7 60h2M10 60h1M12 60h6M35 60h1M43 60h1M47 60h1M49 60h1M104 60h1M8 61h2M11 61h3M35 61h2M43 61h1M48 61h1M50 61h1M103 61h2M9 62h3M36 62h1M43 62h1M47 62h1M49 62h1M103 62h1M9 63h1M36 63h1M43 63h2M48 63h1M50 63h1M52 63h2M59 63h2M102 63h2M9 64h1M36 64h1M43 64h2M47 64h1M49 64h1M52 64h2M59 64h2M101 64h2M9 65h2M36 65h2M42 65h3M48 65h1M50 65h1M100 65h2M10 66h1M36 66h2M40 66h3M44 66h3M98 66h3M10 67h2M35 67h6M45 67h7M96 67h3M11 68h2M34 68h2M44 68h2M51 68h46M12 69h2M32 69h3M42 69h3M13 70h2M30 70h3M34 70h9M14 71h1M27 71h4M34 71h1M14 72h2M24 72h4M34 72h1M15 73h2M19 73h6M34 73h1M16 74h4M34 74h1M19 75h1M34 75h1M19 76h1M34 76h1M18 77h2M34 77h1M18 78h1M34 78h1M18 79h1M33 79h2M17 80h2M33 80h1M17 81h1M33 81h1M17 82h1M33 82h1M16 83h2M33 83h1M16 84h1M33 84h1M16 85h1M33 85h1M16 86h1M32 86h2M15 87h2M32 87h1M15 88h1M32 88h1M15 89h1M32 89h1M14 90h2M32 90h1M14 91h1M31 91h2M14 92h1M31 92h1M13 93h2M31 93h1M13 94h1M31 94h1M12 95h2M30 95h2M12 96h1M30 96h1M11 97h2M30 97h1M11 98h1M29 98h2M10 99h2M29 99h1M10 100h1M29 100h1M9 101h2M29 101h1M9 102h1M28 102h2M8 103h2M28 103h1M8 104h1M28 104h1M7 105h2M27 105h2M7 106h1M27 106h1M7 107h1M27 107h1M7 108h1M26 108h2M7 109h2M26 109h1M8 110h1M25 110h2M8 111h1M25 111h1M8 112h2M24 112h2M9 113h1M23 113h2M9 114h2M22 114h2M10 115h1M21 115h2M10 116h2M19 116h3M11 117h1M17 117h3M11 118h2M15 118h3M12 119h4" />
</svg>