<svg xmlns="http://www.w3.org/2000/svg" viewBox="0 -0.5 128 128" shape-rendering="crispEdges">
<metadata>Made with Pixels to Svg https://codepen.io/shshaw/pen/XbxvNj</metadata>
<path stroke="#000000" d="M79 20h3M79 21h1M81 21h1M53 22h8M78 22h2M81 22h1M48 23h6M60 23h5M78 23h1M81 23h1M26 24h14M43 24h6M64 24h3M78 24h1M81 24h1M25 25h2M38 25h6M66 25h4M77 25h2M81 25h1M24 26h2M35 26h4M69 26h3M77 26h1M81 26h1M22 27h3M33 27h3M71 27h3M77 27h1M80 27h2M20 28h3M31 28h3M73 28h3M77 28h1M80 28h1M18 29h3M28 29h4M75 29h3M80 29h1M15 30h4M26 30h3M76 30h1M79 30h2M11 31h5M22 31h5M76 31h1M79 31h3M9 32h3M20 32h3M76 32h1M79 32h1M81 32h3M8 33h2M19 33h2M75 33h2M78 33h2M83 33h3M7 34h2M17 34h3M63 34h1M75 34h1M78 34h1M85 34h2M6 35h2M16 35h2M64 35h1M75 35h1M78 35h1M86 35h3M6 36h1M15 36h2M37 36h4M65 36h1M74 36h2M77 36h2M88 36h2M5 37h2M14 37h2M41 37h4M66 37h1M74 37h1M77 37h1M89 37h3M106 37h10M5 38h1M13 38h2M45 38h2M66 38h1M74 38h1M77 38h1M91 38h2M105 38h2M115 38h2M4 39h2M13 39h1M48 39h2M67 39h1M74 39h1M77 39h1M92 39h2M104 39h2M116 39h2M4 40h1M12 40h2M50 40h2M68 40h1M73 40h2M76 40h2M93 40h3M103 40h2M117 40h2M4 41h1M11 41h2M52 41h2M68 41h1M73 41h1M76 41h1M95 41h2M101 41h3M107 41h7M118 41h2M3 42h2M10 42h2M54 42h3M68 42h1M73 42h1M76 42h1M96 42h2M100 42h2M106 42h2M113 42h2M119 42h2M3 43h1M10 43h1M57 43h2M68 43h1M72 43h2M76 43h1M97 43h4M104 43h3M114 43h1M120 43h1M3 44h1M10 44h1M59 44h2M67 44h1M72 44h1M75 44h2M97 44h3M103 44h2M114 44h1M120 44h1M3 45h1M9 45h3M63 45h4M72 45h1M75 45h1M96 45h2M103 45h1M114 45h1M120 45h1M3 46h1M10 46h3M72 46h1M75 46h1M95 46h2M102 46h2M114 46h1M120 46h1M3 47h1M9 47h1M11 47h3M71 47h2M75 47h1M94 47h2M101 47h2M108 47h1M114 47h1M120 47h1M3 48h1M10 48h1M12 48h3M26 48h16M71 48h1M74 48h2M77 48h18M101 48h1M107 48h2M113 48h2M120 48h1M3 49h1M9 49h1M11 49h1M13 49h4M21 49h6M41 49h6M71 49h1M74 49h1M76 49h2M101 49h1M106 49h2M112 49h2M120 49h1M3 50h1M10 50h1M12 50h1M14 50h1M16 50h6M46 50h4M51 50h4M70 50h2M74 50h3M101 50h1M106 50h1M112 50h1M118 50h3M3 51h2M11 51h1M13 51h1M15 51h4M45 51h2M49 51h3M54 51h3M70 51h1M73 51h3M101 51h1M105 51h2M111 51h2M117 51h2M120 51h1M4 52h2M10 52h1M12 52h1M14 52h3M44 52h1M51 52h3M56 52h2M70 52h1M73 52h1M80 52h14M101 52h1M105 52h1M109 52h3M116 52h2M119 52h2M5 53h3M11 53h1M13 53h5M53 53h2M57 53h1M70 53h1M73 53h1M77 53h4M93 53h3M101 53h2M108 53h2M115 53h2M118 53h2M7 54h4M12 54h3M18 54h2M44 54h6M54 54h2M57 54h2M69 54h2M73 54h1M75 54h3M95 54h2M102 54h7M113 54h3M117 54h2M9 55h5M20 55h1M42 55h3M49 55h1M55 55h2M58 55h1M69 55h1M72 55h4M81 55h10M96 55h2M112 55h2M116 55h2M10 56h3M40 56h3M48 56h2M56 56h3M68 56h2M72 56h2M78 56h4M90 56h4M97 56h2M111 56h2M114 56h3M11 57h1M38 57h3M48 57h1M57 57h2M66 57h4M72 57h1M76 57h3M93 57h2M98 57h1M110 57h2M113 57h3M10 58h2M35 58h4M46 58h3M57 58h2M65 58h2M68 58h1M72 58h2M75 58h2M94 58h1M98 58h2M109 58h2M112 58h2M115 58h2M10 59h1M31 59h5M43 59h4M58 59h1M64 59h2M68 59h1M73 59h3M94 59h2M99 59h1M107 59h3M111 59h2M116 59h2M9 60h2M30 60h2M35 60h1M39 60h5M58 60h1M63 60h2M68 60h1M74 60h2M95 60h1M99 60h1M106 60h2M110 60h2M117 60h2M9 61h1M28 61h4M35 61h1M37 61h3M58 61h1M61 61h3M67 61h2M71 61h1M75 61h1M95 61h2M99 61h2M105 61h2M108 61h3M118 61h1M9 62h1M26 62h3M31 62h1M35 62h3M58 62h1M60 62h2M66 62h2M70 62h2M75 62h2M96 62h1M100 62h1M105 62h1M107 62h2M118 62h2M9 63h1M24 63h3M31 63h5M58 63h3M66 63h2M70 63h3M76 63h2M96 63h1M100 63h1M105 63h3M119 63h1M9 64h1M22 64h3M29 64h4M58 64h2M65 64h3M70 64h1M72 64h2M77 64h2M96 64h1M100 64h1M105 64h2M119 64h2M9 65h2M20 65h3M25 65h5M57 65h2M64 65h3M70 65h1M73 65h2M78 65h2M96 65h1M100 65h6M120 65h1M9 66h2M18 66h3M22 66h4M57 66h2M64 66h1M66 66h1M69 66h2M74 66h2M79 66h2M95 66h2M99 66h2M105 66h1M120 66h2M9 67h2M16 67h7M56 67h3M64 67h1M66 67h1M69 67h1M75 67h1M80 67h2M95 67h1M99 67h1M105 67h1M121 67h1M9 68h3M16 68h4M49 68h1M56 68h1M58 68h1M63 68h4M69 68h1M74 68h2M79 68h2M94 68h2M99 68h1M105 68h1M121 68h2M9 69h1M11 69h2M50 69h3M55 69h2M58 69h1M63 69h1M65 69h1M69 69h1M73 69h2M78 69h2M94 69h1M98 69h2M105 69h1M122 69h1M9 70h1M12 70h2M53 70h3M58 70h1M63 70h1M65 70h1M68 70h2M72 70h2M77 70h2M93 70h2M98 70h1M105 70h1M122 70h2M9 71h1M13 71h2M52 71h4M58 71h1M63 71h3M68 71h1M71 71h2M76 71h2M92 71h2M97 71h2M105 71h1M123 71h1M9 72h1M14 72h3M26 72h1M50 72h3M58 72h1M62 72h3M68 72h1M70 72h2M74 72h3M91 72h2M96 72h3M104 72h2M123 72h1M9 73h1M16 73h2M25 73h1M48 73h3M58 73h1M62 73h1M64 73h1M68 73h3M73 73h2M90 73h2M95 73h2M99 73h2M103 73h3M123 73h1M9 74h1M17 74h4M24 74h1M46 74h3M58 74h1M62 74h1M64 74h1M68 74h1M72 74h2M88 74h3M94 74h2M101 74h3M105 74h1M123 74h1M9 75h1M20 75h7M39 75h8M58 75h1M62 75h3M71 75h2M87 75h2M93 75h2M101 75h2M104 75h2M123 75h1M9 76h1M26 76h14M57 76h2M62 76h2M69 76h3M85 76h3M92 76h2M100 76h2M103 76h2M123 76h1M9 77h2M56 77h2M63 77h1M68 77h3M84 77h2M90 77h3M99 77h2M102 77h2M105 77h1M123 77h1M10 78h2M55 78h3M63 78h1M67 78h4M82 78h3M89 78h3M97 78h3M101 78h2M104 78h1M123 78h1M11 79h2M54 79h2M57 79h2M63 79h5M70 79h4M76 79h7M87 79h3M91 79h1M96 79h2M100 79h2M103 79h1M123 79h1M12 80h3M52 80h5M58 80h2M64 80h2M73 80h4M85 80h3M92 80h1M95 80h2M99 80h2M102 80h1M123 80h1M14 81h2M50 81h3M54 81h1M56 81h2M59 81h2M65 81h3M82 81h4M93 81h3M97 81h3M101 81h1M116 81h1M118 81h1M122 81h2M15 82h3M48 82h4M53 82h1M55 82h1M57 82h2M60 82h2M67 82h5M78 82h5M93 82h2M96 82h3M100 82h1M102 82h1M115 82h1M117 82h1M119 82h1M121 82h1M123 82h1M17 83h4M46 83h3M50 83h1M52 83h1M54 83h1M56 83h1M58 83h2M61 83h2M71 83h8M92 83h2M95 83h3M99 83h1M101 83h1M114 83h3M118 83h1M120 83h1M122 83h2M20 84h3M43 84h5M49 84h1M51 84h1M53 84h1M55 84h1M57 84h1M59 84h2M62 84h2M91 84h2M94 84h3M98 84h1M100 84h1M113 84h3M117 84h1M119 84h1M121 84h2M22 85h5M40 85h5M46 85h1M48 85h1M54 85h1M56 85h1M58 85h1M60 85h2M63 85h2M89 85h3M93 85h3M97 85h1M99 85h1M101 85h1M113 85h2M116 85h1M118 85h1M120 85h3M26 86h16M43 86h10M57 86h1M59 86h1M61 86h2M64 86h2M88 86h2M92 86h3M96 86h1M98 86h1M100 86h1M112 86h2M115 86h1M117 86h1M119 86h3M42 87h3M52 87h3M58 87h1M60 87h1M62 87h2M65 87h2M87 87h2M91 87h3M95 87h1M97 87h1M99 87h1M111 87h2M114 87h1M116 87h1M118 87h3M41 88h2M45 88h7M54 88h1M59 88h1M61 88h1M63 88h2M66 88h2M85 88h3M89 88h8M98 88h1M100 88h1M110 88h2M113 88h1M115 88h4M40 89h2M44 89h2M51 89h2M54 89h2M62 89h1M64 89h2M67 89h19M88 89h10M99 89h1M109 89h2M112 89h5M39 90h2M43 90h2M52 90h1M55 90h1M63 90h1M65 90h2M87 90h12M100 90h1M108 90h6M38 91h2M42 91h2M52 91h1M55 91h1M66 91h34M107 91h3M37 92h2M42 92h1M52 92h1M55 92h1M84 92h5M90 92h1M92 92h1M94 92h7M107 92h1M37 93h1M42 93h1M52 93h1M54 93h2M86 93h2M89 93h1M91 93h1M93 93h1M95 93h1M97 93h1M99 93h1M106 93h2M36 94h2M42 94h2M51 94h2M54 94h1M87 94h4M92 94h1M94 94h1M96 94h1M98 94h1M105 94h2M36 95h2M43 95h3M50 95h2M54 95h1M89 95h5M95 95h1M97 95h1M104 95h2M36 96h6M45 96h6M53 96h2M92 96h3M96 96h1M98 96h1M102 96h3M36 97h1M39 97h1M41 97h3M53 97h1M94 97h4M101 97h2M36 98h1M39 98h1M43 98h2M52 98h2M96 98h6M36 99h1M39 99h2M44 99h1M51 99h2M36 100h3M41 100h4M50 100h2M37 101h2M41 101h1M44 101h1M49 101h2M38 102h3M44 102h1M48 102h2M40 103h9" />
</svg>