<svg xmlns="http://www.w3.org/2000/svg" viewBox="0 -0.5 128 128" shape-rendering="crispEdges">
<metadata>Made with Pixels to Svg https://codepen.io/shshaw/pen/XbxvNj</metadata>
<path stroke="#000000" d="M34 10h9M75 10h5M32 11h3M42 11h3M69 11h7M79 11h4M29 12h4M44 12h4M64 12h6M82 12h3M28 13h2M47 13h18M84 13h3M27 14h2M50 14h2M60 14h2M86 14h3M27 15h1M49 15h2M59 15h2M88 15h3M26 16h2M48 16h2M58 16h2M90 16h2M26 17h1M47 17h2M58 17h1M91 17h2M26 18h1M47 18h1M57 18h1M92 18h2M26 19h1M46 19h2M56 19h2M93 19h2M25 20h2M45 20h2M56 20h1M94 20h2M25 21h2M45 21h1M55 21h2M95 21h2M25 22h3M44 22h2M55 22h1M96 22h1M25 23h1M27 23h1M44 23h1M54 23h2M96 23h2M25 24h3M44 24h1M54 24h1M84 24h2M97 24h1M25 25h1M27 25h2M43 25h2M53 25h2M81 25h8M97 25h1M25 26h2M28 26h1M43 26h1M53 26h1M79 26h12M97 26h1M25 27h1M27 27h3M43 27h1M53 27h1M77 27h15M97 27h1M25 28h2M28 28h3M43 28h1M53 28h1M75 28h14M90 28h1M96 28h2M25 29h1M27 29h1M29 29h2M43 29h1M53 29h1M74 29h8M83 29h1M85 29h1M87 29h1M89 29h1M96 29h2M25 30h1M28 30h1M30 30h2M43 30h1M53 30h1M72 30h5M78 30h1M80 30h1M82 30h1M84 30h1M86 30h1M88 30h1M95 30h4M25 31h1M29 31h1M31 31h2M43 31h1M53 31h1M70 31h4M75 31h1M77 31h1M79 31h1M81 31h1M83 31h1M85 31h1M87 31h1M94 31h5M25 32h1M30 32h1M32 32h1M43 32h1M53 32h1M68 32h3M72 32h1M74 32h1M76 32h1M78 32h1M80 32h1M82 32h1M94 32h6M25 33h1M31 33h3M43 33h1M53 33h1M65 33h3M69 33h1M71 33h1M73 33h1M75 33h1M77 33h1M79 33h1M94 33h4M99 33h1M25 34h1M32 34h3M43 34h1M53 34h1M64 34h3M68 34h1M70 34h1M72 34h1M74 34h1M76 34h1M94 34h3M98 34h3M25 35h1M33 35h3M43 35h1M53 35h1M62 35h2M65 35h1M67 35h1M69 35h1M71 35h1M94 35h2M97 35h1M99 35h2M25 36h1M34 36h3M43 36h1M53 36h1M60 36h3M64 36h1M66 36h1M94 36h1M96 36h1M98 36h1M100 36h2M25 37h1M36 37h2M43 37h1M53 37h1M58 37h4M63 37h1M65 37h1M93 37h3M97 37h1M99 37h1M101 37h1M25 38h1M35 38h1M37 38h2M43 38h2M53 38h1M57 38h2M60 38h1M62 38h1M66 38h1M93 38h2M96 38h1M98 38h1M100 38h3M25 39h1M38 39h3M44 39h1M53 39h2M56 39h2M93 39h1M95 39h1M97 39h1M99 39h1M101 39h2M25 40h1M35 40h1M40 40h3M44 40h1M54 40h2M66 40h1M93 40h2M96 40h1M98 40h1M102 40h2M25 41h1M34 41h1M42 41h3M54 41h1M92 41h2M95 41h1M97 41h1M103 41h1M20 42h6M35 42h1M41 42h15M66 42h1M92 42h3M96 42h1M103 42h2M19 43h2M24 43h2M34 43h1M36 43h1M40 43h2M55 43h2M65 43h1M92 43h1M94 43h2M104 43h1M19 44h1M24 44h1M35 44h1M40 44h1M56 44h1M66 44h1M91 44h2M94 44h1M104 44h1M18 45h2M21 45h1M24 45h1M34 45h1M36 45h1M40 45h1M43 45h11M56 45h1M65 45h1M67 45h1M91 45h1M94 45h2M104 45h2M18 46h1M21 46h1M24 46h1M33 46h1M35 46h1M40 46h1M43 46h2M52 46h2M56 46h1M66 46h1M68 46h1M91 46h1M94 46h2M105 46h1M18 47h1M20 47h2M23 47h2M34 47h1M36 47h1M40 47h1M43 47h2M52 47h2M56 47h1M65 47h1M67 47h1M91 47h1M95 47h1M105 47h1M17 48h2M20 48h2M23 48h1M33 48h1M35 48h1M40 48h1M43 48h2M52 48h2M56 48h1M66 48h1M68 48h1M91 48h1M95 48h1M105 48h2M17 49h1M20 49h1M23 49h1M32 49h1M34 49h1M40 49h1M43 49h2M52 49h2M56 49h1M67 49h1M69 49h1M91 49h1M95 49h1M106 49h1M17 50h1M19 50h2M23 50h1M33 50h1M35 50h1M40 50h1M43 50h2M52 50h2M56 50h1M66 50h1M68 50h1M90 50h2M95 50h1M106 50h1M16 51h2M20 51h1M22 51h2M32 51h1M34 51h1M40 51h1M43 51h11M56 51h1M67 51h1M69 51h1M90 51h1M95 51h2M106 51h1M16 52h1M19 52h2M22 52h1M31 52h1M33 52h1M40 52h1M56 52h1M68 52h1M70 52h1M90 52h1M96 52h1M106 52h2M15 53h2M18 53h3M22 53h1M30 53h1M32 53h1M40 53h2M55 53h2M67 53h1M69 53h1M90 53h2M96 53h1M107 53h1M15 54h1M19 54h1M22 54h1M31 54h1M33 54h1M41 54h15M68 54h1M70 54h1M91 54h1M96 54h1M107 54h1M15 55h1M18 55h2M22 55h1M30 55h1M32 55h1M43 55h1M53 55h1M69 55h1M71 55h1M91 55h1M96 55h1M107 55h2M15 56h1M17 56h1M19 56h1M22 56h1M29 56h1M31 56h1M43 56h1M53 56h1M70 56h1M91 56h1M96 56h1M108 56h1M14 57h2M18 57h2M22 57h1M28 57h1M30 57h1M43 57h1M53 57h1M69 57h1M71 57h1M91 57h2M96 57h2M108 57h2M14 58h1M17 58h3M22 58h1M29 58h1M43 58h1M53 58h1M70 58h1M72 58h1M92 58h1M97 58h1M108 58h2M14 59h1M16 59h1M18 59h1M22 59h1M28 59h1M43 59h1M53 59h1M92 59h1M97 59h1M109 59h2M14 60h1M17 60h2M22 60h1M27 60h1M43 60h1M52 60h2M92 60h2M97 60h1M109 60h2M14 61h1M16 61h1M18 61h1M21 61h2M43 61h2M52 61h1M93 61h1M97 61h2M109 61h3M13 62h2M17 62h2M21 62h1M29 62h17M51 62h13M93 62h2M98 62h1M109 62h1M111 62h1M13 63h1M16 63h3M21 63h1M28 63h2M33 63h2M42 63h1M45 63h2M50 63h2M58 63h2M63 63h11M94 63h1M98 63h1M109 63h1M111 63h2M13 64h1M15 64h1M17 64h1M21 64h1M27 64h2M33 64h1M42 64h1M46 64h5M57 64h2M65 64h2M73 64h2M94 64h2M98 64h2M109 64h1M112 64h2M12 65h2M16 65h2M21 65h1M27 65h1M32 65h2M41 65h2M57 65h1M65 65h1M74 65h1M88 65h8M99 65h1M108 65h3M113 65h2M12 66h1M15 66h1M17 66h1M21 66h1M26 66h2M32 66h1M41 66h1M57 66h1M65 66h1M71 66h1M74 66h1M83 66h6M95 66h2M99 66h2M108 66h4M114 66h2M12 67h1M14 67h1M16 67h2M21 67h1M25 67h2M32 67h1M41 67h1M56 67h2M64 67h2M71 67h2M74 67h1M79 67h5M96 67h1M100 67h2M107 67h2M110 67h1M112 67h1M115 67h2M12 68h1M15 68h2M21 68h1M25 68h1M31 68h2M40 68h2M56 68h1M64 68h1M71 68h2M74 68h1M79 68h1M96 68h2M101 68h7M110 68h2M113 68h1M116 68h2M12 69h5M21 69h1M25 69h1M31 69h1M40 69h1M56 69h1M64 69h1M71 69h2M74 69h1M79 69h2M97 69h1M103 69h1M110 69h1M112 69h1M114 69h1M117 69h1M16 70h1M21 70h1M24 70h2M31 70h1M40 70h1M56 70h1M64 70h1M70 70h3M74 70h1M79 70h3M97 70h2M103 70h1M110 70h2M117 70h2M15 71h2M20 71h2M24 71h1M31 71h1M39 71h2M56 71h1M63 71h2M70 71h3M74 71h2M79 71h4M98 71h1M103 71h2M110 71h1M118 71h1M15 72h1M20 72h1M24 72h1M31 72h1M39 72h1M56 72h1M63 72h1M70 72h3M75 72h1M79 72h4M98 72h1M104 72h1M110 72h1M117 72h2M15 73h1M19 73h2M23 73h2M30 73h2M39 73h1M56 73h1M63 73h1M70 73h3M75 73h1M79 73h1M81 73h3M98 73h1M104 73h1M110 73h2M115 73h3M15 74h1M19 74h1M23 74h1M30 74h1M38 74h2M55 74h2M63 74h1M70 74h3M75 74h1M79 74h2M82 74h2M98 74h1M104 74h1M110 74h6M14 75h2M18 75h2M23 75h1M30 75h1M38 75h1M55 75h1M63 75h1M70 75h3M75 75h1M79 75h1M81 75h1M83 75h1M96 75h3M104 75h1M111 75h1M14 76h1M18 76h1M23 76h1M30 76h1M38 76h1M55 76h1M63 76h1M70 76h2M75 76h1M79 76h1M82 76h3M93 76h4M98 76h1M104 76h1M111 76h1M14 77h1M17 77h2M22 77h2M29 77h2M38 77h1M55 77h1M63 77h1M69 77h3M75 77h1M79 77h1M81 77h1M83 77h3M90 77h4M96 77h1M98 77h1M104 77h2M111 77h1M14 78h1M17 78h1M22 78h1M29 78h1M38 78h1M55 78h1M63 78h1M69 78h3M75 78h1M79 78h1M82 78h1M84 78h8M96 78h1M98 78h1M105 78h1M111 78h2M13 79h2M17 79h1M22 79h1M29 79h1M37 79h2M54 79h2M63 79h1M69 79h2M75 79h1M79 79h1M83 79h1M85 79h1M87 79h1M89 79h1M91 79h1M96 79h1M98 79h1M105 79h1M112 79h1M13 80h1M17 80h1M22 80h2M29 80h1M37 80h1M54 80h1M63 80h1M69 80h1M75 80h1M79 80h1M84 80h1M86 80h1M88 80h1M90 80h2M96 80h1M98 80h1M105 80h1M112 80h1M13 81h1M17 81h1M23 81h7M37 81h3M54 81h1M62 81h2M68 81h3M75 81h1M79 81h1M85 81h1M87 81h1M89 81h1M91 81h1M95 81h2M98 81h1M105 81h1M112 81h1M13 82h1M17 82h1M25 82h2M28 82h2M37 82h1M39 82h16M62 82h8M74 82h2M79 82h1M91 82h5M98 82h1M105 82h1M112 82h1M13 83h1M16 83h2M25 83h1M27 83h1M29 83h1M37 83h2M40 83h1M42 83h1M44 83h1M46 83h1M48 83h1M50 83h1M52 83h1M54 83h1M62 83h1M64 83h1M66 83h1M68 83h1M74 83h1M79 83h1M98 83h1M105 83h1M112 83h1M13 84h1M16 84h1M25 84h2M28 84h2M37 84h1M39 84h1M41 84h1M43 84h1M45 84h1M47 84h1M49 84h1M51 84h1M53 84h2M62 84h2M65 84h1M67 84h1M74 84h1M79 84h1M98 84h1M105 84h1M112 84h1M12 85h2M16 85h1M25 85h1M27 85h12M40 85h1M42 85h1M44 85h1M46 85h1M48 85h1M50 85h1M52 85h12M74 85h1M79 85h1M98 85h1M105 85h1M112 85h1M12 86h1M16 86h1M25 86h1M28 86h1M38 86h1M41 86h1M43 86h1M45 86h1M47 86h1M49 86h1M51 86h1M53 86h1M63 86h1M74 86h1M79 86h1M98 86h2M105 86h1M112 86h1M12 87h1M16 87h1M25 87h1M28 87h1M30 87h7M38 87h1M42 87h1M44 87h1M46 87h1M53 87h1M55 87h7M63 87h1M74 87h1M79 87h1M99 87h1M105 87h1M112 87h1M12 88h1M16 88h1M25 88h1M28 88h1M30 88h1M36 88h1M38 88h1M53 88h1M55 88h1M61 88h1M63 88h1M69 88h1M74 88h1M79 88h1M99 88h1M105 88h1M112 88h1M12 89h1M16 89h1M24 89h2M28 89h1M30 89h1M36 89h1M38 89h1M53 89h1M55 89h1M61 89h1M63 89h1M74 89h1M79 89h1M99 89h1M105 89h1M112 89h1M12 90h1M16 90h1M24 90h1M28 90h1M30 90h1M36 90h1M38 90h1M53 90h1M55 90h1M61 90h1M63 90h1M69 90h1M74 90h1M79 90h1M99 90h1M105 90h1M111 90h2M12 91h1M16 91h1M24 91h1M28 91h1M30 91h7M38 91h1M53 91h1M55 91h7M63 91h1M74 91h1M79 91h1M99 91h1M104 91h2M111 91h1M12 92h1M16 92h2M24 92h1M28 92h1M38 92h1M53 92h1M63 92h1M69 92h1M74 92h1M79 92h1M99 92h1M103 92h2M111 92h1M12 93h1M17 93h1M24 93h1M28 93h11M53 93h11M68 93h1M74 93h1M79 93h1M99 93h1M101 93h4M110 93h2M12 94h1M17 94h1M24 94h1M29 94h1M37 94h1M54 94h1M62 94h1M69 94h1M74 94h1M79 94h1M99 94h3M103 94h1M105 94h1M107 94h1M110 94h1M12 95h1M17 95h1M24 95h1M29 95h1M37 95h1M54 95h1M62 95h1M68 95h1M73 95h2M79 95h1M99 95h2M102 95h1M104 95h1M106 95h1M108 95h3M12 96h2M17 96h1M24 96h1M29 96h1M36 96h2M54 96h2M61 96h2M69 96h1M73 96h1M79 96h1M99 96h1M101 96h1M103 96h1M105 96h1M107 96h1M109 96h1M12 97h1M14 97h1M17 97h1M24 97h1M29 97h2M36 97h1M55 97h1M61 97h1M68 97h1M73 97h1M79 97h1M99 97h2M102 97h1M104 97h1M106 97h1M108 97h2M12 98h2M15 98h1M17 98h2M24 98h1M30 98h2M35 98h2M55 98h2M60 98h2M69 98h1M73 98h1M79 98h1M99 98h10M12 99h1M14 99h1M16 99h1M18 99h1M24 99h1M31 99h2M34 99h2M56 99h2M59 99h2M68 99h1M73 99h1M79 99h1M99 99h9M12 100h2M15 100h1M17 100h2M24 100h1M32 100h3M57 100h3M67 100h1M69 100h1M73 100h1M79 100h1M99 100h8M13 101h7M24 101h1M68 101h1M73 101h1M79 101h1M99 101h7M13 102h7M24 102h1M67 102h1M73 102h1M79 102h1M98 102h7M14 103h6M24 103h2M66 103h1M68 103h1M72 103h2M79 103h1M96 103h1M98 103h5M14 104h7M25 104h1M67 104h1M69 104h1M72 104h1M79 104h1M95 104h1M97 104h4M15 105h6M25 105h1M66 105h1M68 105h1M72 105h1M79 105h2M94 105h1M96 105h1M98 105h1M17 106h5M23 106h1M25 106h2M67 106h1M69 106h1M71 106h3M80 106h2M91 106h1M93 106h1M95 106h1M97 106h2M21 107h2M24 107h1M26 107h2M66 107h1M68 107h1M71 107h2M74 107h1M80 107h1M82 107h1M84 107h1M86 107h1M88 107h1M90 107h1M92 107h1M94 107h1M96 107h3M21 108h3M25 108h1M27 108h4M67 108h1M69 108h3M73 108h1M75 108h1M80 108h2M83 108h1M85 108h1M87 108h1M89 108h1M91 108h7M22 109h1M24 109h1M26 109h1M28 109h1M30 109h9M66 109h5M72 109h1M74 109h1M76 109h1M80 109h1M82 109h1M84 109h13M22 110h2M25 110h1M27 110h1M29 110h1M31 110h19M64 110h8M73 110h1M75 110h1M80 110h16M23 111h2M26 111h1M28 111h1M30 111h43M74 111h1M76 111h1M78 111h1M80 111h15M24 112h4M29 112h45M75 112h1M77 112h1M79 112h1M82 112h10M26 113h49M76 113h1M78 113h1M80 113h3M28 114h48M77 114h4M30 115h48M34 116h41M45 117h24" />
</svg>