<svg xmlns="http://www.w3.org/2000/svg" viewBox="0 -0.5 128 128" shape-rendering="crispEdges">
<metadata>Made with Pixels to Svg https://codepen.io/shshaw/pen/XbxvNj</metadata>
<path stroke="#000000" d="M82 24h16M77 25h6M97 25h7M73 26h5M103 26h4M70 27h4M79 27h9M96 27h6M106 27h4M69 28h2M75 28h7M98 28h2M101 28h4M109 28h3M67 29h3M72 29h4M77 29h1M79 29h1M100 29h1M102 29h1M104 29h4M111 29h3M66 30h2M71 30h4M76 30h1M101 30h1M103 30h1M105 30h5M113 30h2M65 31h2M69 31h5M75 31h1M102 31h1M104 31h1M106 31h1M108 31h4M114 31h3M64 32h2M68 32h5M74 32h1M76 32h1M103 32h1M105 32h1M107 32h1M109 32h4M116 32h2M63 33h2M67 33h5M73 33h1M75 33h1M102 33h1M104 33h1M106 33h1M108 33h1M110 33h5M117 33h1M62 34h2M66 34h3M70 34h1M72 34h1M74 34h1M76 34h1M105 34h1M107 34h1M109 34h1M111 34h5M117 34h1M61 35h2M65 35h3M69 35h1M71 35h1M73 35h1M75 35h1M77 35h1M104 35h1M106 35h1M108 35h1M110 35h1M112 35h4M117 35h2M61 36h1M64 36h3M68 36h1M70 36h1M72 36h1M74 36h1M76 36h1M78 36h1M80 36h1M82 36h1M103 36h1M105 36h1M107 36h1M109 36h1M111 36h5M118 36h1M60 37h2M63 37h3M67 37h1M69 37h1M71 37h1M73 37h1M75 37h1M77 37h15M104 37h1M106 37h1M108 37h1M110 37h1M112 37h4M118 37h2M59 38h2M63 38h4M68 38h1M70 38h1M72 38h1M74 38h5M91 38h8M103 38h1M105 38h1M107 38h1M109 38h6M119 38h1M59 39h1M62 39h4M67 39h1M69 39h1M71 39h1M73 39h3M98 39h5M104 39h1M106 39h1M108 39h1M110 39h5M119 39h1M58 40h2M61 40h4M66 40h1M68 40h1M70 40h4M101 40h3M105 40h1M107 40h8M119 40h1M57 41h2M61 41h3M65 41h1M67 41h1M69 41h2M103 41h2M106 41h1M108 41h7M119 41h1M49 42h9M60 42h3M64 42h1M66 42h1M68 42h2M104 42h10M119 42h1M39 43h11M59 43h3M65 43h1M67 43h2M105 43h9M119 43h1M34 44h6M51 44h10M64 44h1M66 44h2M106 44h7M119 44h1M31 45h4M41 45h11M65 45h3M107 45h6M119 45h1M28 46h4M36 46h6M66 46h1M108 46h4M119 46h1M26 47h3M33 47h4M65 47h2M108 47h3M119 47h1M23 48h4M31 48h4M66 48h1M107 48h2M119 48h1M21 49h3M28 49h4M33 49h1M35 49h1M37 49h1M65 49h2M105 49h3M119 49h1M20 50h2M25 50h4M30 50h1M32 50h1M34 50h1M36 50h1M65 50h1M102 50h4M119 50h1M18 51h3M23 51h3M27 51h1M29 51h1M31 51h1M33 51h1M35 51h1M37 51h1M65 51h1M99 51h4M119 51h1M16 52h3M22 52h3M26 52h1M28 52h1M30 52h1M32 52h1M34 52h1M65 52h1M96 52h4M119 52h1M15 53h2M20 53h6M27 53h1M29 53h1M31 53h1M33 53h1M35 53h1M37 53h1M64 53h2M93 53h4M118 53h2M14 54h2M18 54h7M26 54h1M28 54h1M30 54h1M32 54h1M34 54h1M38 54h1M60 54h5M90 54h4M118 54h1M13 55h2M17 55h9M27 55h1M29 55h1M31 55h1M33 55h1M35 55h1M37 55h1M52 55h10M87 55h4M117 55h2M12 56h2M16 56h11M28 56h1M30 56h1M32 56h1M34 56h1M36 56h1M38 56h1M50 56h3M84 56h4M116 56h2M12 57h1M15 57h17M33 57h1M35 57h1M37 57h1M39 57h1M44 57h7M82 57h3M115 57h2M12 58h1M14 58h10M31 58h6M38 58h1M42 58h3M80 58h3M113 58h3M11 59h2M14 59h6M34 59h4M39 59h1M41 59h2M79 59h2M111 59h3M11 60h1M14 60h4M36 60h6M78 60h2M82 60h1M84 60h1M109 60h3M11 61h1M14 61h2M38 61h2M77 61h2M81 61h1M83 61h1M107 61h3M11 62h1M13 62h2M39 62h2M77 62h1M80 62h1M82 62h1M84 62h1M105 62h3M11 63h3M40 63h2M77 63h1M79 63h1M81 63h1M83 63h1M103 63h3M11 64h2M41 64h2M77 64h1M79 64h2M82 64h1M84 64h1M101 64h3M11 65h2M42 65h1M77 65h1M79 65h1M81 65h1M83 65h1M99 65h3M11 66h1M37 66h1M42 66h2M77 66h1M79 66h2M82 66h1M97 66h3M10 67h2M43 67h1M76 67h2M79 67h1M81 67h1M83 67h1M95 67h3M10 68h1M38 68h1M43 68h1M76 68h1M79 68h2M82 68h1M92 68h4M10 69h1M39 69h1M43 69h2M75 69h2M78 69h2M81 69h1M90 69h3M10 70h1M38 70h1M40 70h1M44 70h1M74 70h2M78 70h1M80 70h1M82 70h1M87 70h4M9 71h2M39 71h1M44 71h1M73 71h2M77 71h3M81 71h1M85 71h3M9 72h1M38 72h1M40 72h1M44 72h1M72 72h2M76 72h2M80 72h1M82 72h1M84 72h2M9 73h1M39 73h1M44 73h2M71 73h2M75 73h2M79 73h1M81 73h1M84 73h1M9 74h1M38 74h1M40 74h1M45 74h1M69 74h3M74 74h2M80 74h1M82 74h1M84 74h1M9 75h1M39 75h1M45 75h1M66 75h4M73 75h2M81 75h1M84 75h1M9 76h2M38 76h1M40 76h1M45 76h1M63 76h4M80 76h1M82 76h1M84 76h1M10 77h1M23 77h2M39 77h1M45 77h1M60 77h4M81 77h1M84 77h1M10 78h1M23 78h3M38 78h1M40 78h1M45 78h1M56 78h5M82 78h3M10 79h1M22 79h2M25 79h1M39 79h1M44 79h13M81 79h1M83 79h1M10 80h2M22 80h1M25 80h1M38 80h1M40 80h1M44 80h3M48 80h1M50 80h1M80 80h1M82 80h2M11 81h1M22 81h1M25 81h1M39 81h1M44 81h4M49 81h1M81 81h2M11 82h2M22 82h1M25 82h1M38 82h1M44 82h3M48 82h1M50 82h1M80 82h1M82 82h1M12 83h1M22 83h1M25 83h1M39 83h1M43 83h3M47 83h1M49 83h1M81 83h2M12 84h2M17 84h6M25 84h5M38 84h1M43 84h4M48 84h1M50 84h1M80 84h2M13 85h5M22 85h1M25 85h1M29 85h4M37 85h1M42 85h4M47 85h1M78 85h3M13 86h2M22 86h1M25 86h1M32 86h2M36 86h1M38 86h1M42 86h3M46 86h1M48 86h1M77 86h2M12 87h2M23 87h1M33 87h3M37 87h1M41 87h5M47 87h1M75 87h3M12 88h1M34 88h3M40 88h5M46 88h1M48 88h1M72 88h4M12 89h1M15 89h1M34 89h2M39 89h5M45 89h1M47 89h1M49 89h1M70 89h3M12 90h1M16 90h2M33 90h3M37 90h6M44 90h1M46 90h1M48 90h1M68 90h3M12 91h1M18 91h2M29 91h13M43 91h1M45 91h1M47 91h1M65 91h4M12 92h1M20 92h8M29 92h1M31 92h10M42 92h1M44 92h1M46 92h1M48 92h1M62 92h4M12 93h1M28 93h1M30 93h1M32 93h8M41 93h1M43 93h1M45 93h1M58 93h5M12 94h1M27 94h1M29 94h1M31 94h8M40 94h1M42 94h1M44 94h1M46 94h1M54 94h5M12 95h1M28 95h1M30 95h1M32 95h23M12 96h1M26 96h1M29 96h1M31 96h5M12 97h2M28 97h1M30 97h1M32 97h4M13 98h3M27 98h1M29 98h1M31 98h3M15 99h4M28 99h4M18 100h11" />
<path stroke="rgba(0,0,0,0.03137254901960784)" d="M99 31h1" />
</svg>