<svg xmlns="http://www.w3.org/2000/svg" viewBox="0 -0.5 128 128" shape-rendering="crispEdges">
<metadata>Made with Pixels to Svg https://codepen.io/shshaw/pen/XbxvNj</metadata>
<path stroke="#000000" d="M112 6h2M112 7h2M101 8h2M104 8h4M111 8h3M121 8h2M101 9h2M104 9h1M107 9h2M110 9h3M121 9h2M93 10h4M100 10h5M108 10h1M110 10h2M113 10h4M120 10h3M93 11h1M96 11h2M99 11h3M103 11h1M108 11h4M113 11h1M116 11h2M119 11h3M92 12h2M97 12h1M99 12h2M102 12h2M108 12h3M112 12h2M117 12h1M119 12h2M92 13h1M97 13h4M102 13h1M108 13h6M117 13h4M91 14h2M97 14h3M101 14h2M107 14h3M113 14h2M117 14h3M91 15h1M97 15h5M106 15h3M114 15h1M117 15h6M58 16h6M90 16h2M96 16h3M100 16h2M106 16h2M114 16h1M116 16h3M122 16h2M54 17h5M63 17h3M90 17h1M95 17h3M100 17h1M105 17h3M113 17h5M123 17h1M51 18h4M65 18h3M89 18h2M95 18h2M99 18h2M104 18h3M112 18h2M115 18h2M123 18h1M49 19h3M59 19h4M67 19h2M89 19h1M94 19h3M99 19h1M104 19h2M111 19h2M114 19h3M122 19h2M47 20h3M55 20h1M57 20h1M59 20h1M61 20h4M68 20h2M88 20h2M93 20h3M98 20h2M103 20h3M110 20h2M113 20h3M121 20h2M46 21h2M54 21h1M56 21h1M58 21h1M60 21h1M62 21h1M64 21h2M69 21h2M88 21h1M93 21h2M98 21h1M102 21h3M109 21h2M113 21h2M120 21h2M44 22h3M53 22h1M55 22h1M57 22h1M59 22h1M61 22h6M70 22h2M87 22h2M92 22h3M97 22h2M102 22h2M108 22h2M112 22h3M119 22h2M43 23h2M50 23h1M52 23h1M54 23h1M56 23h6M66 23h2M71 23h2M87 23h1M91 23h3M97 23h1M101 23h3M107 23h2M111 23h3M118 23h2M41 24h3M49 24h1M51 24h1M53 24h5M67 24h1M72 24h1M86 24h2M91 24h2M96 24h2M100 24h3M106 24h2M111 24h2M117 24h2M40 25h2M48 25h1M50 25h5M67 25h2M72 25h2M86 25h1M90 25h3M96 25h1M100 25h2M105 25h2M110 25h3M116 25h2M39 26h2M47 26h1M49 26h3M68 26h2M73 26h1M85 26h2M89 26h3M95 26h2M99 26h3M104 26h3M109 26h3M115 26h2M38 27h2M46 27h1M48 27h2M69 27h1M73 27h2M85 27h1M89 27h2M94 27h3M98 27h3M103 27h3M109 27h2M114 27h2M37 28h2M46 28h3M69 28h2M74 28h1M85 28h1M88 28h3M93 28h3M98 28h2M102 28h2M105 28h1M108 28h3M113 28h2M36 29h2M45 29h2M70 29h1M74 29h1M85 29h1M87 29h3M92 29h2M95 29h1M97 29h3M101 29h2M104 29h2M107 29h3M112 29h2M35 30h2M44 30h2M70 30h1M74 30h2M85 30h1M87 30h2M91 30h2M95 30h4M100 30h2M104 30h1M107 30h2M111 30h2M34 31h2M43 31h2M70 31h2M75 31h1M85 31h4M90 31h2M95 31h3M99 31h2M104 31h1M106 31h3M110 31h2M33 32h2M42 32h2M71 32h1M75 32h2M85 32h3M89 32h2M95 32h5M104 32h4M109 32h2M32 33h2M41 33h2M71 33h1M76 33h1M85 33h5M94 33h3M104 33h3M108 33h2M31 34h2M40 34h2M71 34h1M76 34h1M84 34h3M94 34h2M104 34h5M31 35h1M39 35h2M71 35h1M76 35h2M83 35h9M93 35h3M103 35h3M30 36h2M38 36h2M71 36h1M77 36h1M80 36h5M86 36h1M88 36h1M90 36h5M103 36h2M29 37h2M37 37h2M71 37h2M76 37h5M82 37h3M86 37h1M88 37h1M90 37h1M92 37h8M102 37h3M29 38h1M36 38h2M72 38h6M79 38h1M81 38h3M85 38h1M87 38h1M89 38h1M91 38h3M95 38h1M97 38h1M99 38h5M28 39h2M35 39h2M72 39h4M77 39h1M79 39h1M81 39h2M84 39h1M86 39h1M88 39h1M90 39h3M94 39h1M96 39h1M98 39h1M100 39h5M28 40h1M35 40h1M72 40h5M78 40h1M80 40h3M84 40h1M86 40h1M88 40h1M90 40h2M93 40h1M95 40h1M97 40h1M99 40h6M28 41h1M34 41h2M72 41h6M79 41h3M83 41h1M85 41h1M87 41h1M89 41h3M93 41h1M95 41h1M97 41h5M103 41h2M27 42h2M33 42h2M71 42h2M75 42h6M82 42h1M84 42h1M86 42h1M88 42h13M102 42h2M27 43h1M33 43h1M71 43h1M76 43h22M102 43h1M26 44h2M32 44h2M70 44h2M79 44h13M101 44h2M25 45h2M32 45h1M70 45h1M100 45h2M24 46h4M31 46h2M69 46h2M100 46h1M23 47h2M27 47h2M31 47h1M69 47h1M99 47h2M22 48h2M28 48h2M31 48h1M68 48h2M98 48h2M22 49h1M29 49h3M68 49h1M98 49h1M22 50h1M30 50h2M67 50h2M97 50h2M22 51h3M30 51h3M67 51h1M97 51h1M21 52h2M24 52h2M29 52h1M31 52h3M66 52h2M96 52h2M21 53h1M25 53h2M28 53h1M30 53h1M32 53h3M66 53h1M95 53h2M20 54h2M26 54h2M29 54h1M31 54h1M33 54h3M66 54h1M95 54h1M19 55h2M26 55h3M30 55h1M35 55h1M65 55h2M94 55h2M17 56h4M26 56h4M31 56h1M35 56h2M65 56h1M93 56h2M16 57h2M20 57h2M25 57h2M28 57h3M36 57h1M64 57h2M93 57h1M15 58h2M20 58h7M29 58h2M36 58h2M64 58h1M92 58h2M14 59h2M19 59h1M21 59h3M26 59h2M30 59h1M37 59h2M63 59h2M92 59h1M14 60h1M18 60h1M20 60h3M27 60h1M30 60h2M38 60h1M63 60h1M91 60h2M14 61h2M17 61h1M19 61h2M27 61h2M31 61h2M38 61h2M62 61h2M90 61h2M14 62h3M18 62h2M28 62h2M32 62h2M39 62h2M62 62h2M90 62h1M13 63h6M28 63h2M33 63h1M40 63h1M61 63h4M89 63h2M13 64h5M27 64h2M33 64h2M40 64h2M61 64h1M64 64h2M88 64h2M13 65h3M17 65h2M25 65h3M34 65h2M41 65h1M60 65h2M65 65h2M88 65h1M13 66h3M18 66h2M23 66h3M27 66h1M35 66h1M41 66h2M60 66h1M66 66h2M87 66h2M12 67h2M15 67h2M19 67h6M26 67h2M35 67h2M42 67h1M59 67h3M67 67h2M87 67h1M11 68h2M16 68h2M20 68h2M23 68h1M25 68h1M27 68h1M36 68h2M42 68h2M59 68h3M68 68h2M86 68h2M11 69h1M17 69h6M24 69h1M26 69h3M37 69h1M43 69h1M58 69h2M61 69h2M69 69h3M85 69h2M10 70h2M18 70h6M25 70h1M27 70h2M37 70h2M43 70h2M58 70h1M62 70h2M71 70h4M85 70h1M10 71h1M12 71h1M17 71h6M24 71h1M26 71h1M28 71h1M38 71h1M44 71h2M57 71h2M63 71h2M74 71h12M9 72h2M14 72h1M16 72h2M22 72h2M28 72h2M38 72h2M45 72h2M57 72h1M64 72h2M83 72h2M9 73h1M11 73h1M15 73h2M22 73h2M29 73h1M39 73h1M46 73h2M56 73h2M65 73h3M83 73h1M8 74h2M13 74h1M15 74h1M23 74h1M29 74h1M39 74h2M47 74h2M56 74h1M67 74h4M82 74h2M8 75h1M14 75h2M23 75h1M29 75h1M40 75h1M48 75h4M55 75h2M70 75h4M82 75h1M7 76h2M14 76h1M23 76h1M29 76h1M40 76h2M51 76h5M73 76h10M7 77h1M14 77h1M23 77h1M29 77h1M41 77h2M50 77h1M52 77h1M54 77h1M80 77h2M7 78h1M13 78h2M23 78h1M29 78h2M42 78h2M51 78h1M53 78h2M80 78h1M6 79h2M13 79h1M23 79h2M30 79h1M43 79h2M50 79h1M52 79h2M79 79h2M6 80h1M13 80h1M24 80h1M30 80h1M44 80h3M49 80h1M51 80h1M53 80h1M78 80h2M6 81h1M13 81h1M24 81h1M30 81h1M46 81h5M52 81h2M78 81h1M6 82h1M12 82h2M24 82h1M30 82h1M49 82h4M77 82h2M6 83h1M12 83h1M24 83h1M30 83h1M51 83h1M76 83h2M6 84h1M12 84h1M24 84h2M29 84h2M50 84h2M76 84h1M6 85h1M12 85h1M25 85h3M29 85h1M50 85h1M75 85h2M6 86h1M12 86h1M27 86h3M50 86h1M75 86h1M6 87h1M12 87h1M49 87h2M74 87h3M6 88h1M12 88h1M49 88h1M73 88h5M6 89h1M12 89h1M48 89h2M73 89h6M6 90h1M12 90h1M48 90h2M72 90h8M6 91h1M12 91h1M47 91h4M71 91h7M79 91h2M6 92h1M12 92h1M47 92h1M50 92h2M71 92h6M78 92h1M80 92h2M6 93h1M12 93h1M46 93h2M51 93h2M70 93h6M77 93h1M79 93h1M81 93h2M6 94h1M12 94h1M46 94h1M52 94h2M69 94h2M73 94h2M76 94h1M78 94h1M82 94h2M6 95h1M12 95h1M45 95h2M53 95h2M69 95h1M74 95h2M77 95h1M83 95h2M6 96h1M12 96h2M45 96h3M54 96h2M68 96h2M75 96h2M78 96h1M84 96h2M6 97h2M13 97h1M44 97h2M47 97h2M55 97h3M68 97h1M76 97h2M85 97h1M7 98h1M13 98h1M44 98h1M48 98h2M57 98h3M67 98h2M77 98h2M85 98h2M7 99h1M13 99h2M43 99h2M49 99h2M59 99h9M78 99h1M86 99h1M7 100h2M14 100h1M43 100h1M50 100h2M66 100h1M78 100h2M86 100h1M8 101h1M14 101h2M42 101h2M51 101h3M65 101h2M79 101h1M86 101h1M8 102h2M15 102h1M42 102h1M53 102h3M64 102h2M79 102h1M86 102h1M9 103h1M15 103h2M41 103h2M55 103h3M64 103h1M79 103h1M86 103h1M9 104h2M16 104h2M41 104h1M57 104h8M79 104h1M86 104h1M10 105h1M17 105h3M40 105h2M63 105h1M79 105h1M86 105h1M10 106h2M19 106h2M38 106h3M62 106h2M78 106h2M85 106h2M11 107h2M20 107h4M35 107h5M61 107h2M77 107h2M85 107h1M12 108h2M23 108h13M37 108h3M61 108h1M76 108h2M84 108h2M13 109h2M34 109h1M36 109h3M60 109h2M75 109h2M84 109h1M14 110h3M33 110h1M35 110h3M39 110h1M59 110h2M74 110h2M83 110h2M16 111h3M34 111h1M36 111h3M40 111h1M59 111h1M69 111h6M82 111h2M18 112h5M33 112h1M35 112h3M39 112h1M41 112h1M58 112h12M81 112h2M22 113h17M40 113h1M42 113h1M57 113h5M63 113h1M65 113h1M80 113h2M38 114h2M41 114h1M43 114h1M57 114h4M62 114h1M64 114h1M79 114h2M39 115h2M42 115h1M44 115h1M56 115h6M63 115h1M77 115h3M40 116h2M43 116h1M45 116h1M47 116h1M56 116h5M62 116h1M64 116h1M75 116h3M41 117h2M44 117h1M46 117h1M48 117h1M50 117h1M52 117h1M54 117h6M61 117h1M63 117h1M71 117h5M42 118h4M47 118h1M49 118h1M51 118h1M53 118h19M44 119h5M50 119h1M52 119h3M47 120h7" />
<path stroke="rgba(0,0,0,0.06274509803921569)" d="M76 39h1" />
</svg>