<svg xmlns="http://www.w3.org/2000/svg" viewBox="0 -0.5 128 128" shape-rendering="crispEdges">
<metadata>Made with Pixels to Svg https://codepen.io/shshaw/pen/XbxvNj</metadata>
<path stroke="#000000" d="M98 10h5M95 11h4M102 11h3M93 12h8M104 12h2M92 13h11M105 13h2M91 14h13M106 14h2M90 15h14M107 15h2M89 16h2M92 16h13M108 16h2M88 17h2M91 17h1M93 17h12M109 17h2M87 18h2M90 18h1M92 18h1M94 18h11M110 18h2M86 19h2M89 19h1M91 19h1M93 19h1M95 19h11M111 19h2M85 20h2M88 20h1M90 20h1M92 20h1M94 20h1M96 20h8M105 20h2M112 20h2M84 21h4M89 21h1M91 21h1M93 21h1M95 21h1M97 21h7M106 21h2M113 21h2M83 22h2M86 22h3M90 22h1M92 22h1M94 22h1M96 22h1M98 22h5M107 22h2M114 22h2M82 23h2M85 23h1M87 23h3M91 23h1M93 23h1M95 23h1M97 23h1M99 23h4M108 23h2M115 23h2M81 24h2M84 24h1M86 24h1M88 24h3M92 24h1M94 24h1M96 24h1M98 24h1M100 24h2M109 24h2M116 24h2M80 25h2M83 25h1M85 25h1M87 25h1M89 25h3M93 25h1M95 25h1M97 25h1M99 25h1M101 25h1M110 25h2M117 25h2M79 26h2M82 26h1M84 26h1M86 26h1M88 26h1M90 26h3M94 26h1M96 26h1M98 26h1M100 26h1M111 26h2M118 26h2M78 27h2M85 27h1M87 27h1M89 27h1M91 27h3M95 27h1M97 27h1M99 27h2M112 27h2M119 27h2M77 28h4M88 28h1M90 28h1M92 28h3M96 28h1M98 28h4M113 28h2M120 28h1M77 29h1M80 29h2M89 29h1M91 29h1M93 29h3M97 29h3M101 29h2M114 29h2M120 29h1M77 30h1M81 30h2M88 30h1M90 30h1M92 30h1M94 30h3M98 30h1M102 30h2M115 30h2M120 30h1M77 31h1M82 31h2M91 31h1M93 31h1M95 31h4M103 31h2M116 31h2M120 31h1M77 32h1M83 32h2M92 32h1M94 32h1M96 32h2M104 32h2M117 32h2M120 32h1M77 33h1M84 33h2M95 33h3M103 33h4M118 33h3M77 34h1M85 34h2M94 34h1M96 34h2M103 34h1M106 34h2M119 34h2M77 35h1M86 35h2M95 35h1M97 35h1M102 35h2M107 35h2M119 35h1M77 36h1M87 36h2M96 36h2M102 36h1M108 36h2M118 36h2M77 37h1M88 37h2M95 37h3M101 37h2M109 37h2M118 37h1M76 38h2M89 38h2M94 38h2M97 38h1M100 38h2M110 38h2M117 38h2M75 39h4M90 39h2M93 39h2M97 39h1M99 39h2M102 39h1M109 39h4M117 39h1M74 40h3M78 40h1M85 40h9M97 40h3M101 40h1M103 40h1M108 40h2M112 40h2M116 40h2M73 41h3M77 41h9M97 41h4M102 41h1M107 41h2M113 41h4M71 42h4M76 42h1M78 42h1M80 42h3M97 42h3M101 42h1M103 42h1M107 42h1M114 42h2M70 43h2M73 43h1M75 43h1M77 43h1M79 43h3M92 43h4M97 43h4M102 43h1M104 43h1M106 43h2M113 43h2M69 44h2M72 44h1M74 44h1M76 44h1M78 44h3M91 44h2M95 44h7M103 44h1M105 44h2M111 44h3M67 45h3M73 45h1M75 45h1M77 45h2M90 45h2M96 45h1M99 45h7M109 45h3M66 46h2M72 46h1M74 46h1M76 46h2M89 46h2M96 46h2M100 46h5M107 46h3M64 47h3M73 47h1M75 47h2M88 47h2M97 47h1M100 47h8M63 48h2M73 48h3M87 48h2M97 48h1M101 48h4M62 49h2M72 49h2M86 49h2M97 49h1M102 49h2M60 50h3M71 50h2M85 50h2M97 50h2M103 50h2M59 51h2M70 51h2M84 51h2M98 51h1M104 51h1M58 52h2M69 52h2M83 52h2M98 52h1M104 52h2M56 53h3M68 53h2M82 53h2M92 53h4M98 53h1M105 53h1M55 54h2M66 54h3M81 54h2M91 54h2M95 54h2M98 54h1M105 54h2M54 55h2M65 55h2M80 55h2M91 55h1M96 55h3M106 55h1M52 56h3M63 56h3M79 56h2M91 56h1M97 56h2M105 56h2M51 57h2M62 57h2M78 57h2M91 57h2M97 57h3M105 57h1M50 58h2M60 58h3M78 58h1M92 58h2M96 58h2M99 58h1M105 58h1M49 59h2M59 59h2M77 59h2M83 59h14M99 59h1M104 59h2M47 60h3M58 60h2M77 60h1M80 60h9M94 60h2M98 60h2M103 60h2M46 61h2M57 61h2M77 61h7M95 61h4M103 61h1M45 62h2M55 62h3M76 62h6M83 62h1M102 62h2M44 63h2M54 63h2M71 63h10M82 63h1M84 63h1M101 63h2M43 64h2M53 64h2M70 64h2M74 64h8M83 64h1M85 64h1M100 64h2M42 65h2M52 65h2M69 65h2M73 65h10M84 65h1M86 65h1M99 65h2M41 66h2M51 66h2M68 66h2M73 66h11M85 66h1M87 66h1M98 66h2M39 67h3M49 67h3M67 67h2M72 67h13M86 67h1M97 67h2M38 68h2M48 68h2M66 68h2M72 68h4M77 68h1M79 68h3M84 68h2M87 68h1M96 68h2M37 69h2M47 69h2M65 69h2M72 69h3M76 69h1M78 69h1M80 69h2M84 69h3M88 69h1M94 69h3M36 70h2M46 70h2M64 70h2M72 70h4M77 70h1M79 70h1M81 70h2M85 70h3M89 70h1M93 70h2M35 71h2M45 71h2M63 71h2M72 71h2M76 71h1M78 71h1M80 71h1M82 71h2M86 71h3M90 71h4M34 72h2M44 72h2M61 72h3M72 72h2M77 72h1M79 72h1M81 72h1M83 72h2M87 72h5M33 73h2M42 73h3M60 73h2M73 73h1M80 73h1M82 73h1M84 73h2M32 74h2M41 74h2M59 74h2M73 74h1M81 74h1M83 74h1M85 74h1M31 75h2M40 75h2M58 75h2M73 75h1M84 75h3M30 76h2M39 76h2M57 76h2M68 76h4M73 76h1M85 76h2M29 77h2M38 77h2M56 77h2M67 77h2M71 77h3M86 77h1M28 78h2M37 78h2M55 78h2M66 78h2M72 78h2M86 78h1M27 79h2M36 79h2M54 79h2M66 79h1M73 79h2M86 79h1M25 80h3M35 80h2M53 80h2M66 80h1M73 80h3M85 80h2M24 81h2M34 81h2M53 81h2M58 81h7M66 81h2M72 81h2M75 81h1M84 81h2M23 82h2M33 82h2M52 82h17M71 82h2M75 82h1M84 82h1M22 83h2M32 83h2M47 83h3M51 83h8M68 83h4M74 83h2M83 83h2M21 84h2M30 84h3M46 84h2M49 84h8M69 84h2M73 84h2M82 84h2M20 85h2M29 85h2M44 85h3M50 85h8M70 85h4M81 85h2M19 86h2M28 86h2M43 86h2M49 86h10M80 86h2M18 87h2M27 87h2M42 87h2M48 87h12M79 87h2M17 88h2M26 88h2M40 88h3M48 88h5M54 88h7M77 88h3M16 89h3M25 89h2M39 89h2M47 89h5M53 89h1M55 89h3M60 89h2M76 89h2M15 90h3M19 90h1M24 90h2M38 90h2M46 90h5M52 90h1M54 90h1M56 90h1M61 90h2M75 90h2M14 91h3M18 91h1M23 91h2M36 91h3M46 91h4M51 91h1M53 91h1M55 91h3M62 91h3M73 91h3M11 92h5M17 92h1M19 92h1M22 92h2M35 92h2M46 92h3M50 92h1M52 92h1M54 92h1M56 92h3M64 92h2M71 92h3M11 93h1M13 93h2M16 93h1M18 93h1M21 93h2M34 93h2M46 93h2M51 93h1M53 93h1M55 93h1M57 93h2M65 93h3M69 93h3M10 94h2M13 94h1M15 94h1M17 94h1M19 94h1M21 94h1M32 94h3M45 94h3M50 94h1M52 94h1M54 94h1M56 94h1M58 94h2M67 94h3M10 95h1M13 95h2M16 95h1M18 95h1M20 95h2M31 95h2M45 95h2M53 95h1M55 95h1M57 95h1M59 95h1M10 96h1M12 96h2M15 96h1M17 96h1M19 96h2M30 96h2M45 96h2M54 96h1M56 96h1M58 96h3M10 97h1M12 97h1M14 97h1M16 97h1M18 97h2M29 97h2M40 97h4M45 97h2M57 97h1M59 97h2M10 98h1M12 98h2M15 98h1M17 98h2M28 98h2M39 98h2M43 98h3M59 98h2M10 99h1M12 99h1M14 99h1M16 99h2M28 99h1M39 99h1M44 99h2M58 99h2M10 100h1M12 100h2M15 100h3M28 100h3M39 100h1M45 100h2M58 100h1M10 101h1M12 101h1M14 101h1M16 101h1M27 101h5M39 101h2M45 101h3M57 101h2M10 102h4M15 102h2M23 102h13M40 102h2M44 102h2M47 102h1M56 102h2M9 103h3M13 103h4M22 103h2M26 103h7M35 103h10M47 103h1M55 103h2M9 104h1M15 104h2M21 104h2M27 104h6M42 104h2M46 104h2M54 104h2M9 105h1M11 105h3M16 105h1M20 105h2M24 105h2M28 105h6M43 105h4M53 105h2M9 106h1M11 106h1M13 106h2M16 106h2M20 106h1M23 106h4M29 106h6M52 106h2M9 107h3M14 107h7M23 107h5M30 107h6M51 107h2M11 108h2M17 108h1M19 108h3M24 108h5M31 108h6M49 108h3M12 109h2M18 109h1M20 109h3M25 109h5M32 109h2M36 109h2M47 109h3M13 110h2M19 110h1M21 110h3M26 110h4M32 110h1M37 110h2M45 110h3M14 111h2M18 111h1M20 111h1M22 111h3M27 111h2M31 111h2M38 111h3M43 111h3M15 112h2M19 112h1M21 112h1M23 112h3M30 112h2M40 112h4M16 113h3M20 113h1M22 113h5M29 113h2M18 114h12" />
</svg>