<svg xmlns="http://www.w3.org/2000/svg" viewBox="0 -0.5 128 128" shape-rendering="crispEdges">
<metadata>Made with Pixels to Svg https://codepen.io/shshaw/pen/XbxvNj</metadata>
<path stroke="#000000" d="M59 9h11M93 9h3M56 10h4M69 10h5M93 10h1M95 10h1M53 11h4M73 11h4M92 11h2M95 11h2M50 12h4M76 12h3M92 12h1M96 12h1M48 13h3M78 13h3M92 13h1M96 13h1M46 14h3M80 14h2M92 14h1M96 14h2M44 15h3M74 15h3M81 15h2M92 15h2M97 15h1M43 16h2M58 16h14M74 16h1M76 16h2M82 16h2M93 16h1M97 16h1M41 17h3M55 17h4M71 17h4M77 17h2M83 17h2M93 17h2M98 17h1M40 18h2M52 18h4M72 18h14M94 18h1M98 18h2M39 19h2M50 19h3M73 19h2M85 19h5M94 19h2M99 19h2M38 20h2M49 20h2M56 20h1M73 20h4M90 20h3M95 20h1M100 20h1M37 21h2M47 21h3M57 21h2M72 21h2M76 21h3M92 21h5M100 21h2M36 22h2M46 22h2M59 22h2M72 22h1M78 22h3M94 22h4M101 22h2M35 23h2M44 23h4M61 23h2M71 23h2M80 23h5M95 23h3M102 23h2M34 24h2M43 24h2M48 24h3M63 24h2M71 24h1M80 24h3M84 24h6M97 24h2M103 24h2M33 25h2M42 25h2M51 25h2M65 25h2M71 25h1M80 25h1M82 25h2M89 25h4M98 25h2M104 25h2M32 26h2M41 26h2M53 26h3M67 26h1M70 26h2M79 26h2M83 26h2M91 26h4M99 26h3M105 26h2M31 27h2M40 27h2M56 27h2M70 27h1M79 27h1M84 27h2M92 27h5M101 27h2M106 27h2M30 28h2M39 28h2M58 28h3M70 28h1M78 28h2M85 28h2M93 28h1M96 28h3M102 28h2M107 28h2M29 29h2M38 29h2M61 29h2M69 29h2M78 29h1M86 29h2M93 29h2M98 29h3M103 29h2M108 29h2M29 30h1M37 30h2M42 30h2M63 30h3M69 30h1M78 30h1M87 30h1M94 30h1M100 30h3M104 30h2M109 30h2M28 31h2M36 31h2M44 31h3M66 31h4M77 31h2M87 31h2M94 31h2M102 31h2M105 31h2M110 31h2M28 32h1M35 32h2M47 32h2M68 32h1M77 32h1M88 32h1M95 32h1M103 32h2M106 32h2M111 32h2M27 33h2M35 33h1M49 33h2M68 33h1M77 33h1M88 33h2M95 33h1M104 33h2M107 33h2M112 33h2M26 34h2M34 34h2M51 34h2M67 34h2M76 34h2M89 34h1M95 34h2M105 34h2M108 34h7M26 35h1M33 35h2M53 35h2M67 35h1M76 35h3M89 35h2M96 35h1M106 35h2M109 35h1M112 35h3M25 36h2M33 36h1M55 36h2M66 36h2M75 36h2M79 36h2M90 36h1M96 36h1M107 36h3M113 36h3M25 37h1M32 37h2M57 37h1M66 37h2M75 37h1M81 37h3M90 37h1M96 37h2M108 37h2M111 37h1M113 37h3M24 38h2M31 38h2M40 38h2M61 38h1M66 38h1M75 38h1M84 38h2M90 38h2M97 38h1M108 38h2M111 38h1M114 38h2M24 39h1M31 39h1M42 39h3M62 39h2M65 39h2M74 39h2M86 39h3M91 39h1M97 39h1M109 39h1M111 39h2M115 39h1M23 40h2M30 40h4M45 40h2M64 40h2M74 40h1M89 40h3M97 40h2M109 40h1M112 40h2M115 40h1M23 41h1M30 41h1M34 41h2M47 41h1M65 41h1M73 41h2M91 41h2M98 41h1M109 41h2M113 41h1M115 41h1M22 42h2M29 42h2M36 42h2M50 42h2M64 42h2M73 42h1M92 42h1M98 42h1M109 42h3M113 42h1M115 42h1M22 43h1M29 43h1M38 43h3M52 43h3M64 43h1M72 43h2M92 43h1M98 43h1M109 43h1M111 43h1M115 43h1M21 44h2M29 44h1M41 44h2M55 44h2M64 44h1M72 44h1M92 44h1M98 44h1M108 44h2M111 44h2M115 44h1M21 45h1M28 45h2M43 45h3M63 45h2M72 45h1M92 45h2M98 45h2M108 45h1M112 45h2M115 45h1M21 46h1M28 46h1M46 46h2M60 46h4M71 46h2M76 46h3M93 46h1M99 46h1M108 46h1M113 46h3M20 47h2M27 47h2M48 47h3M62 47h2M71 47h1M79 47h2M93 47h1M99 47h1M108 47h1M114 47h2M20 48h1M27 48h1M51 48h2M62 48h1M71 48h1M81 48h2M93 48h1M99 48h1M107 48h2M114 48h1M20 49h1M26 49h2M53 49h2M62 49h1M70 49h2M83 49h2M93 49h1M99 49h1M107 49h1M114 49h1M19 50h2M26 50h1M32 50h2M55 50h3M61 50h2M70 50h1M72 50h3M85 50h2M93 50h1M99 50h1M107 50h1M113 50h2M19 51h1M26 51h1M34 51h2M58 51h2M61 51h1M70 51h1M75 51h2M87 51h3M93 51h2M99 51h2M107 51h1M113 51h1M19 52h1M25 52h2M36 52h2M57 52h5M69 52h2M77 52h2M90 52h1M94 52h1M100 52h1M106 52h2M113 52h1M18 53h2M25 53h1M38 53h2M55 53h3M60 53h2M69 53h1M79 53h3M94 53h1M100 53h1M106 53h1M112 53h2M18 54h1M25 54h1M40 54h2M54 54h2M60 54h1M68 54h2M82 54h3M94 54h1M100 54h1M106 54h1M112 54h1M18 55h1M24 55h2M42 55h2M53 55h2M60 55h1M68 55h2M85 55h2M94 55h1M100 55h1M105 55h2M112 55h1M18 56h1M24 56h1M44 56h2M52 56h2M60 56h1M68 56h4M94 56h1M100 56h1M104 56h2M111 56h2M18 57h1M24 57h1M46 57h2M51 57h2M59 57h2M67 57h3M72 57h3M94 57h1M100 57h1M104 57h1M111 57h1M17 58h2M24 58h1M48 58h2M51 58h1M59 58h1M67 58h1M69 58h1M75 58h2M94 58h1M100 58h1M103 58h2M110 58h2M17 59h1M24 59h1M50 59h2M59 59h1M66 59h2M69 59h1M77 59h3M94 59h1M100 59h1M102 59h2M110 59h1M17 60h1M24 60h1M35 60h2M50 60h1M59 60h1M66 60h1M69 60h1M80 60h2M94 60h1M100 60h1M102 60h1M109 60h2M17 61h1M24 61h1M37 61h2M49 61h2M59 61h1M65 61h2M69 61h2M82 61h2M94 61h1M100 61h3M108 61h2M17 62h1M24 62h1M39 62h3M49 62h1M58 62h2M64 62h2M70 62h1M84 62h3M94 62h1M100 62h2M108 62h1M17 63h1M23 63h2M42 63h2M49 63h1M58 63h1M64 63h1M70 63h2M87 63h2M93 63h2M99 63h2M107 63h2M17 64h1M23 64h1M44 64h2M48 64h2M57 64h2M63 64h2M70 64h1M72 64h6M89 64h3M93 64h1M99 64h1M107 64h1M17 65h1M23 65h3M46 65h3M57 65h1M63 65h1M70 65h1M78 65h2M92 65h2M98 65h2M106 65h2M17 66h1M23 66h1M26 66h2M48 66h1M57 66h1M62 66h2M70 66h1M80 66h2M93 66h1M97 66h2M105 66h2M17 67h1M23 67h1M28 67h3M48 67h2M56 67h2M62 67h1M69 67h2M75 67h3M82 67h2M93 67h1M96 67h2M105 67h1M17 68h1M23 68h1M31 68h2M48 68h1M56 68h1M61 68h2M69 68h1M71 68h1M75 68h1M78 68h3M84 68h1M93 68h1M95 68h2M104 68h2M17 69h1M23 69h1M33 69h2M48 69h2M55 69h2M61 69h1M69 69h1M72 69h1M76 69h2M81 69h1M85 69h1M93 69h3M103 69h2M17 70h1M23 70h1M35 70h3M48 70h1M50 70h1M55 70h1M61 70h1M68 70h2M73 70h1M78 70h4M86 70h1M93 70h2M103 70h1M17 71h1M23 71h1M38 71h2M48 71h2M51 71h1M55 71h1M60 71h2M68 71h1M74 71h1M92 71h2M102 71h2M17 72h1M23 72h2M40 72h3M49 72h2M52 72h1M54 72h2M60 72h1M67 72h2M75 72h3M92 72h2M101 72h2M17 73h1M23 73h1M25 73h3M43 73h2M49 73h1M51 73h1M53 73h2M60 73h1M66 73h3M78 73h3M92 73h1M100 73h2M17 74h2M23 74h1M28 74h3M45 74h2M49 74h2M52 74h3M59 74h2M65 74h1M67 74h1M81 74h7M91 74h2M100 74h1M18 75h1M23 75h2M31 75h3M47 75h5M53 75h1M59 75h1M62 75h1M64 75h1M66 75h3M90 75h2M99 75h2M18 76h1M24 76h1M34 76h2M50 76h4M59 76h1M61 76h1M63 76h1M65 76h2M69 76h2M89 76h2M98 76h2M18 77h1M24 77h1M52 77h1M59 77h2M62 77h1M64 77h2M71 77h2M88 77h2M97 77h2M18 78h1M24 78h1M51 78h2M58 78h2M61 78h4M73 78h2M87 78h2M96 78h2M18 79h1M24 79h1M41 79h2M50 79h2M58 79h5M75 79h2M86 79h2M95 79h3M18 80h1M24 80h2M43 80h2M50 80h1M58 80h4M77 80h2M85 80h2M94 80h4M18 81h2M25 81h1M45 81h2M50 81h1M58 81h1M62 81h2M84 81h2M94 81h1M96 81h1M19 82h1M25 82h1M32 82h3M47 82h4M57 82h2M64 82h3M83 82h2M93 82h2M96 82h1M19 83h1M25 83h1M35 83h3M49 83h1M57 83h2M67 83h2M82 83h2M92 83h2M95 83h2M19 84h1M25 84h1M38 84h3M49 84h1M56 84h2M69 84h2M81 84h2M91 84h2M95 84h1M19 85h1M25 85h2M41 85h2M48 85h2M56 85h1M71 85h3M80 85h2M90 85h2M95 85h1M19 86h2M26 86h1M43 86h3M48 86h1M56 86h1M74 86h2M79 86h2M89 86h2M94 86h2M20 87h1M26 87h1M46 87h3M55 87h2M76 87h4M88 87h2M94 87h1M20 88h1M26 88h2M47 88h1M55 88h1M76 88h3M87 88h2M93 88h2M20 89h2M27 89h1M47 89h1M55 89h1M75 89h2M86 89h2M93 89h1M21 90h1M27 90h2M46 90h2M54 90h2M74 90h2M84 90h4M92 90h2M21 91h1M28 91h2M41 91h2M46 91h1M54 91h3M73 91h2M83 91h2M86 91h1M92 91h1M21 92h2M28 92h3M43 92h4M54 92h1M57 92h2M71 92h3M82 92h2M85 92h2M91 92h2M22 93h1M29 93h1M31 93h2M45 93h2M53 93h2M59 93h2M70 93h2M81 93h2M85 93h1M91 93h1M22 94h2M29 94h2M33 94h3M45 94h1M53 94h1M61 94h2M69 94h2M80 94h2M84 94h2M90 94h2M23 95h1M30 95h1M36 95h2M44 95h2M52 95h2M63 95h2M68 95h2M79 95h2M83 95h2M90 95h1M23 96h2M30 96h2M38 96h2M44 96h1M52 96h3M66 96h3M77 96h3M83 96h1M89 96h2M24 97h1M31 97h2M40 97h2M44 97h1M52 97h1M55 97h2M65 97h2M76 97h2M82 97h2M89 97h1M24 98h2M32 98h1M42 98h3M51 98h2M64 98h2M74 98h3M81 98h2M88 98h2M25 99h1M32 99h2M43 99h2M51 99h1M62 99h3M73 99h2M80 99h2M88 99h1M25 100h2M33 100h2M43 100h1M50 100h2M61 100h2M72 100h2M79 100h2M87 100h2M26 101h2M34 101h2M42 101h2M50 101h1M59 101h3M70 101h3M78 101h2M86 101h2M27 102h2M35 102h2M42 102h1M50 102h2M58 102h2M69 102h2M77 102h2M85 102h2M28 103h1M36 103h2M41 103h2M49 103h2M52 103h3M56 103h3M67 103h3M76 103h2M84 103h2M28 104h2M37 104h2M41 104h1M49 104h1M53 104h4M66 104h2M75 104h2M83 104h2M29 105h2M38 105h2M41 105h1M49 105h1M51 105h3M64 105h3M74 105h2M82 105h2M30 106h2M39 106h3M46 106h6M63 106h2M72 106h3M81 106h2M31 107h2M40 107h7M61 107h3M71 107h2M80 107h2M32 108h1M40 108h2M59 108h3M69 108h3M79 108h2M32 109h2M39 109h2M57 109h3M67 109h3M78 109h2M33 110h2M39 110h1M55 110h3M63 110h5M77 110h2M34 111h2M39 111h3M47 111h9M60 111h4M75 111h3M35 112h3M41 112h3M46 112h2M52 112h9M74 112h2M37 113h2M43 113h4M73 113h2M38 114h2M71 114h3M39 115h3M69 115h3M41 116h4M67 116h3M44 117h8M61 117h7M51 118h11" />
</svg>